<svg width="140" height="141" viewBox="0 0 140 141" fill="none" xmlns="http://www.w3.org/2000/svg">
  <circle cx="70" cy="70.9688" r="58" fill="url(#paint0_linear_2632_142452)"/>
  <path d="M117.91 50.7285C118.874 53.0022 119.676 55.3414 120.31 57.7285" stroke="white" stroke-width="1.5" stroke-linecap="round"/>
  <path d="M19.0601 81.4491C16.823 70.5194 18.1478 59.1605 22.8401 49.0391" stroke="white" stroke-width="1.5" stroke-linecap="round"/>
  <path d="M55.84 121.019C49.3613 119.191 43.3015 116.117 38 111.969" stroke="white" stroke-width="1.5" stroke-linecap="round"/>
  <path d="M94.35 116.969L92.95 117.679" stroke="white" stroke-width="1.5" stroke-linecap="round"/>
  <path d="M121.72 65.5283C121.904 67.3358 121.998 69.1514 122 70.9683C122.012 88.143 113.533 104.213 99.3501 113.898" stroke="white" stroke-width="1.5" stroke-linecap="round"/>
  <path d="M37.1899 107.308C36.9292 107.303 36.7008 107.132 36.6218 106.884C36.5427 106.635 36.6304 106.364 36.8399 106.208C38.3901 105.325 39.4153 103.744 39.5899 101.968V32.1484C39.5899 25.521 44.9625 20.1484 51.5899 20.1484H107.52C107.869 20.1526 108.173 20.3885 108.264 20.7258C108.355 21.0631 108.21 21.4196 107.91 21.5984V21.5984C105.46 23.0284 104.91 25.6584 104.91 28.4984V97.3084C104.91 102.831 100.433 107.308 94.9099 107.308H37.1899Z" fill="#80B1FF"/>
  <path d="M29.0701 100.119L30.0001 99.9688C32.5901 99.569 34.5011 97.3394 34.5001 94.7188V24.9688C34.5001 18.3413 39.8727 12.9688 46.5001 12.9688H106.4C106.749 12.9729 107.053 13.2088 107.144 13.5461C107.235 13.8834 107.09 14.2399 106.79 14.4188V14.4188C102.466 16.9153 99.7988 21.5257 99.7901 26.5188V94.1188C99.7901 97.4325 97.1038 100.119 93.7901 100.119H29.0701Z" fill="url(#paint1_linear_2632_142452)"/>
  <rect x="43.6899" y="26.2588" width="46" height="4" rx="2" fill="white"/>
  <rect x="43.6899" y="39.2588" width="46" height="4" rx="2" fill="white"/>
  <rect x="43.6899" y="52.2588" width="46" height="4" rx="2" fill="white"/>
  <rect x="43.6899" y="65.2588" width="23" height="4" rx="2" fill="white"/>
  <path d="M88.36 87.4092V93.2492C88.36 97.3092 90.55 98.6592 93.27 98.6592C93.47 98.6592 92.86 99.9892 93.06 100.009L93.98 100.119H29.24H28.89C25.8642 99.7484 23.5974 97.1676 23.62 94.1192V87.4092C23.62 84.0955 26.3063 81.4092 29.62 81.4092H82.36C85.6738 81.4092 88.36 84.0955 88.36 87.4092Z" fill="#3E70FF"/>
  <path d="M99.0801 72.6084V74.1584" stroke="#3E70FF" stroke-width="1.5" stroke-linecap="round"/>
  <path d="M41.52 14.8688C43.0595 14.1095 44.7535 13.716 46.47 13.7188H68.12" stroke="#3E70FF" stroke-width="1.5" stroke-linecap="round"/>
  <path d="M37.6099 18.0488C37.8781 17.6971 38.1687 17.3631 38.4799 17.0488" stroke="#3E70FF" stroke-width="1.5" stroke-linecap="round"/>
  <path d="M99.0801 79.9688V94.1687C99.0746 97.066 96.7273 99.4132 93.8301 99.4188H33.0801" stroke="#3E70FF" stroke-width="1.5" stroke-linecap="round"/>
  <path d="M103.34 59.4884L104.03 57.4884C104.169 57.0856 104.549 56.8154 104.975 56.8154C105.401 56.8154 105.781 57.0856 105.92 57.4884L106.61 59.4884C107.212 61.1968 108.553 62.5418 110.26 63.1484L112.26 63.8384C112.663 63.9778 112.933 64.3571 112.933 64.7834C112.933 65.2096 112.663 65.589 112.26 65.7284L110.26 66.4184C108.555 67.0227 107.214 68.3638 106.61 70.0684L105.92 72.0684C105.781 72.4711 105.401 72.7413 104.975 72.7413C104.549 72.7413 104.169 72.4711 104.03 72.0684L103.34 70.0684C102.733 68.3616 101.388 67.0202 99.68 66.4184L97.68 65.7284C97.2772 65.589 97.0071 65.2096 97.0071 64.7834C97.0071 64.3571 97.2772 63.9778 97.68 63.8384L99.68 63.1484C101.391 62.5444 102.736 61.1989 103.34 59.4884Z" fill="#3E70FF"/>
  <path d="M48.87 88.359L49.7 85.969C49.8386 85.4478 50.3106 85.085 50.85 85.085C51.3893 85.085 51.8613 85.4478 52 85.969L52.83 88.319C53.5519 90.3609 55.158 91.9671 57.2 92.689L59.55 93.519C60.0274 93.6897 60.3461 94.142 60.3461 94.649C60.3461 95.1561 60.0274 95.6084 59.55 95.779L57.2 96.609C55.1565 97.3284 53.5493 98.9355 52.83 100.979L52 103.359C51.8345 103.839 51.3827 104.161 50.875 104.161C50.3672 104.161 49.9155 103.839 49.75 103.359L48.92 101.019C48.1972 98.9742 46.5865 97.3671 44.54 96.649L42.2 95.819C41.7225 95.6484 41.4038 95.1961 41.4038 94.689C41.4038 94.182 41.7225 93.7297 42.2 93.559L44.54 92.729C46.565 91.9946 48.1541 90.3908 48.87 88.359Z" fill="url(#paint2_linear_2632_142452)"/>
  <path d="M33.1699 39.6583L33.6999 38.1583C33.8393 37.7555 34.2187 37.4854 34.6449 37.4854C35.0711 37.4854 35.4505 37.7555 35.5899 38.1583L36.1199 39.6583C36.7217 41.3667 38.0631 42.7118 39.7699 43.3183L41.2799 43.8483C41.6754 43.9918 41.9387 44.3676 41.9387 44.7883C41.9387 45.209 41.6754 45.5847 41.2799 45.7283L39.7699 46.2683C38.0545 46.8833 36.7115 48.2446 36.1199 49.9683L35.5899 51.4683C35.4505 51.8711 35.0711 52.1412 34.6449 52.1412C34.2187 52.1412 33.8393 51.8711 33.6999 51.4683L33.1699 49.9683C32.5634 48.2615 31.2183 46.9201 29.5099 46.3183L27.9999 45.7283C27.6044 45.5847 27.3411 45.209 27.3411 44.7883C27.3411 44.3676 27.6044 43.9918 27.9999 43.8483L29.4999 43.3183C31.2143 42.7168 32.5638 41.371 33.1699 39.6583Z" fill="#3E70FF"/>
  <defs>
    <linearGradient id="paint0_linear_2632_142452" x1="73.615" y1="144.804" x2="151.065" y2="67.3538" gradientUnits="userSpaceOnUse">
      <stop stop-color="#BBD3FF"/>
      <stop offset="1" stop-color="#D5E5FF"/>
    </linearGradient>
    <linearGradient id="paint1_linear_2632_142452" x1="56.4011" y1="139.076" x2="132.702" y2="77.7981" gradientUnits="userSpaceOnUse">
      <stop offset="0.3" stop-color="#A8C8FF"/>
      <stop offset="1" stop-color="#D5E5FF"/>
    </linearGradient>
    <linearGradient id="paint2_linear_2632_142452" x1="41.35" y1="104.231" x2="60.3" y2="104.231" gradientUnits="userSpaceOnUse">
      <stop stop-color="#FFC799"/>
      <stop offset="1" stop-color="#FFB18F"/>
    </linearGradient>
  </defs>
</svg>
