<svg width="37" height="36" viewBox="0 0 37 36" fill="none" xmlns="http://www.w3.org/2000/svg">
<path fill-rule="evenodd" clip-rule="evenodd" d="M18.9385 0C17.8339 0 16.9385 0.89543 16.9385 2C16.9385 3.10457 17.8339 4 18.9385 4C26.6705 4 32.9385 10.268 32.9385 18C32.9385 25.732 26.6705 32 18.9385 32C11.2065 32 4.93848 25.732 4.93848 18C4.93848 16.8954 4.04305 16 2.93848 16C1.83391 16 0.938477 16.8954 0.938477 18C0.938477 27.9411 8.99734 36 18.9385 36C28.8796 36 36.9385 27.9411 36.9385 18C36.9385 8.05886 28.8796 0 18.9385 0Z" fill="#0057B6"/>
</svg>
