<svg width="124" height="122" viewBox="0 0 124 122" fill="none" xmlns="http://www.w3.org/2000/svg">
    <path d="M60.3 121.3C93.5475 121.3 120.5 94.3476 120.5 61.1C120.5 27.8525 93.5475 0.900024 60.3 0.900024C27.0524 0.900024 0.0999756 27.8525 0.0999756 61.1C0.0999756 94.3476 27.0524 121.3 60.3 121.3Z" fill="#E5EFFF"/>
    <path d="M92.122 84.025L35.422 84.3401C31.747 84.361 28.758 81.4 28.737 77.725L28.4219 21.025C28.401 17.35 31.362 14.361 35.037 14.34L91.737 14.0249C95.412 14.004 98.401 16.965 98.422 20.64L98.737 77.34C98.751 81.015 95.79 84.004 92.122 84.025Z" fill="#A8C8FF"/>
    <path d="M90.26 90.885L36.346 108.441C32.853 109.575 29.101 107.671 27.967 104.178L10.411 50.264C9.27695 46.771 11.181 43.019 14.674 41.885L68.5879 24.329C72.0809 23.195 75.8329 25.099 76.9669 28.592L94.5229 82.506C95.6639 85.992 93.753 89.751 90.26 90.885Z" fill="url(#paint0_linear)"/>
    <path d="M83.694 66.798L84.919 82.149" stroke="#0066CC" stroke-width="3" stroke-linecap="round"/>
    <path d="M12.406 49.613C12.028 48.458 12.126 47.226 12.679 46.141C13.232 45.056 14.17 44.251 15.325 43.88L19.651 42.473C20.204 42.291 20.505 41.703 20.323 41.15C20.141 40.597 19.553 40.296 19 40.478L14.674 41.885C12.987 42.438 11.608 43.607 10.803 45.196C9.99799 46.778 9.85799 48.584 10.404 50.271L12.119 55.535C12.266 55.976 12.672 56.263 13.12 56.263C13.225 56.263 13.337 56.249 13.442 56.214C13.995 56.032 14.296 55.444 14.114 54.891L12.406 49.613ZM20.75 75.24L16.277 61.492C16.095 60.939 15.5 60.638 14.954 60.82C14.401 61.002 14.1 61.59 14.282 62.143L18.755 75.891C18.902 76.332 19.308 76.619 19.756 76.619C19.861 76.619 19.973 76.605 20.078 76.57C20.631 76.381 20.932 75.793 20.75 75.24Z" fill="#0066CC"/>
    <path d="M77.912 67.666C77.555 66.56 76.365 65.958 75.266 66.322L34.001 79.762C32.895 80.119 32.293 81.309 32.657 82.408C33.014 83.514 34.204 84.116 35.303 83.752L76.568 70.312C77.674 69.955 78.276 68.772 77.912 67.666ZM67.853 81.988L49.219 88.057C48.113 88.414 47.511 89.604 47.875 90.703C48.232 91.809 49.422 92.411 50.521 92.047L69.155 85.978C70.261 85.621 70.863 84.431 70.499 83.332C70.142 82.233 68.959 81.624 67.853 81.988ZM52.033 65.055C57.549 63.256 60.559 57.334 58.767 51.818C56.975 46.302 51.046 43.292 45.53 45.084C40.014 46.876 37.004 52.805 38.796 58.321C40.595 63.837 46.517 66.847 52.033 65.055Z" fill="#D5E5FF"/>
    <path d="M98.8 98.2C112.718 98.2 124 86.9176 124 73C124 59.0825 112.718 47.8 98.8 47.8C84.8824 47.8 73.6 59.0825 73.6 73C73.6 86.9176 84.8824 98.2 98.8 98.2Z" fill="#0066CC"/>
    <path d="M98.8 75.1001C99.962 75.1001 100.9 74.1621 100.9 73.0001V61.6601C100.9 60.4981 99.962 59.5601 98.8 59.5601C97.638 59.5601 96.7 60.4981 96.7 61.6601V73.0001C96.7 74.1621 97.638 75.1001 98.8 75.1001ZM98.8 80.8051C97.197 80.8051 95.895 82.1071 95.895 83.7101C95.895 85.3131 97.197 86.6151 98.8 86.6151C100.403 86.6151 101.705 85.3131 101.705 83.7101C101.705 82.1071 100.403 80.8051 98.8 80.8051Z" fill="#E5EFFF"/>
    <defs>
        <linearGradient id="paint0_linear" x1="19.1158" y1="77.2501" x2="85.6784" y2="55.5783" gradientUnits="userSpaceOnUse">
            <stop stop-color="white"/>
            <stop offset="1" stop-color="#F6F6F9"/>
        </linearGradient>
    </defs>
</svg>
